<svg xmlns="http://www.w3.org/2000/svg" viewBox="0 0 368 58" width="368" height="58" preserveAspectRatio="xMidYMid meet" style="width: 100%; height: 100%; transform: translate3d(0px, 0px, 0px);"><defs><clipPath id="__lottie_element_14"><rect width="368" height="58" x="0" y="0"></rect></clipPath><filter id="__lottie_element_16" filterUnits="objectBoundingBox" x="0%" y="0%" width="100%" height="100%"><feComponentTransfer in="SourceGraphic"><feFuncA type="table" tableValues="1.0 0.0"></feFuncA></feComponentTransfer></filter><mask id="__lottie_element_15" mask-type="alpha"><g filter="url(#__lottie_element_16)"><rect width="368" height="58" x="0" y="0" fill="#ffffff" opacity="0"></rect><g transform="matrix(1,0,0,1,31.850000381469727,17.950000762939453)" opacity="1" style="display: block;"><g opacity="1" transform="matrix(1,0,0,1,-3.450000047683716,19.799999237060547)"><path fill="rgb(0,0,0)" fill-opacity="1" d=" M0,5.900000095367432 C6.900000095367432,5.900000095367432 12.699999809265137,1.7999999523162842 14,-3.5 C14.300000190734863,-4.699999809265137 13.100000381469727,-5.800000190734863 11.5,-5.900000095367432 C11.5,-5.900000095367432 -11.600000381469727,-5.900000095367432 -11.600000381469727,-5.900000095367432 C-13.100000381469727,-5.900000095367432 -14.300000190734863,-4.699999809265137 -14,-3.5 C-12.600000381469727,1.899999976158142 -6.900000095367432,5.900000095367432 0,5.900000095367432z"></path></g><g opacity="1" transform="matrix(1,0,0,1,4.050000190734863,4.050000190734863)"><path fill="rgb(0,0,0)" fill-opacity="1" d=" M0,3.799999952316284 C2.0999999046325684,3.799999952316284 3.799999952316284,2.0999999046325684 3.799999952316284,0 C3.799999952316284,-2.0999999046325684 2.0999999046325684,-3.799999952316284 0,-3.799999952316284 C-2.0999999046325684,-3.799999952316284 -3.799999952316284,-2.0999999046325684 -3.799999952316284,0 C-3.799999952316284,2.0999999046325684 -2.0999999046325684,3.799999952316284 0,3.799999952316284z"></path></g><g opacity="1" transform="matrix(1,0,0,1,-10.381999969482422,4.050000190734863)"><path fill="rgb(0,0,0)" fill-opacity="1" d=" M0.05000000074505806,3.799999952316284 C2.1500000953674316,3.799999952316284 3.8499999046325684,2.0999999046325684 3.8499999046325684,0 C3.8499999046325684,-2.0999999046325684 2.25,-3.799999952316284 0.05000000074505806,-3.799999952316284 C-2.1500000953674316,-3.799999952316284 -3.8499999046325684,-2.0999999046325684 -3.75,0 C-3.75,2.0999999046325684 -2.049999952316284,3.799999952316284 0.05000000074505806,3.799999952316284z"></path></g></g></g></mask></defs><g clip-path="url(#__lottie_element_14)"><g transform="matrix(1,0,0,1,68.25,-0.25)" opacity="1" style="display: block;"><g opacity="1" transform="matrix(1,0,0,1,123.5,35.150001525878906)"><path fill="rgb(255,255,255)" fill-opacity="1" d=" M2.75,-4.199999809265137 C-2.75,-5.400000095367432 -5.849999904632568,-6 -5.849999904632568,-8.300000190734863 C-5.849999904632568,-10.399999618530273 -4.050000190734863,-11.899999618530273 -0.3499999940395355,-11.899999618530273 C3.049999952316284,-11.899999618530273 5.449999809265137,-10.399999618530273 7.050000190734863,-8 C7.050000190734863,-8 15.050000190734863,-12.600000381469727 15.050000190734863,-12.600000381469727 C11.649999618530273,-16.899999618530273 7.050000190734863,-19.5 -0.15000000596046448,-19.5 C-9.350000381469727,-19.5 -15.350000381469727,-14.100000381469727 -15.350000381469727,-7.800000190734863 C-15.350000381469727,0.10000000149011612 -8.350000381469727,2 -2.049999952316284,3.299999952316284 C2.75,4.300000190734863 6.650000095367432,4.900000095367432 6.650000095367432,7.5 C6.650000095367432,9.800000190734863 4.550000190734863,11.600000381469727 0.75,11.600000381469727 C-3.1500000953674316,11.600000381469727 -6.150000095367432,9.899999618530273 -7.849999904632568,6.599999904632568 C-7.849999904632568,6.599999904632568 -16.350000381469727,11.5 -16.350000381469727,11.5 C-13.25,16.600000381469727 -7.75,19.5 0.3499999940395355,19.5 C11.149999618530273,19.5 16.350000381469727,12.899999618530273 16.350000381469727,7.099999904632568 C16.25,-0.8999999761581421 8.949999809265137,-2.9000000953674316 2.75,-4.199999809265137z"></path></g><g opacity="1" transform="matrix(1,0,0,1,89.30000305175781,35.150001525878906)"><path fill="rgb(255,255,255)" fill-opacity="1" d=" M2.75,-4.199999809265137 C-2.75,-5.400000095367432 -5.849999904632568,-6 -5.849999904632568,-8.300000190734863 C-5.849999904632568,-10.399999618530273 -4.050000190734863,-11.899999618530273 -0.3499999940395355,-11.899999618530273 C3.049999952316284,-11.899999618530273 5.449999809265137,-10.399999618530273 7.050000190734863,-8 C7.050000190734863,-8 15.050000190734863,-12.600000381469727 15.050000190734863,-12.600000381469727 C11.649999618530273,-16.899999618530273 7.050000190734863,-19.5 -0.15000000596046448,-19.5 C-9.350000381469727,-19.5 -15.350000381469727,-14.100000381469727 -15.350000381469727,-7.800000190734863 C-15.350000381469727,0.10000000149011612 -8.350000381469727,2 -2.049999952316284,3.299999952316284 C2.75,4.300000190734863 6.650000095367432,4.900000095367432 6.650000095367432,7.5 C6.650000095367432,9.800000190734863 4.550000190734863,11.600000381469727 0.75,11.600000381469727 C-3.1500000953674316,11.600000381469727 -6.150000095367432,9.899999618530273 -7.849999904632568,6.599999904632568 C-7.849999904632568,6.599999904632568 -16.350000381469727,11.5 -16.350000381469727,11.5 C-13.25,16.600000381469727 -7.75,19.5 0.3499999940395355,19.5 C11.149999618530273,19.5 16.350000381469727,12.899999618530273 16.350000381469727,7.099999904632568 C16.350000381469727,-0.8999999761581421 8.949999809265137,-2.9000000953674316 2.75,-4.199999809265137z"></path></g><g opacity="1" transform="matrix(1,0,0,1,51.25,35.150001525878906)"><path fill="rgb(255,255,255)" fill-opacity="1" d=" M0,-19.5 C-10.800000190734863,-19.5 -19.5,-10.800000190734863 -19.5,0 C-19.5,10.800000190734863 -10.800000190734863,19.5 0,19.5 C10.800000190734863,19.5 19.5,10.800000190734863 19.5,0 C19.5,-10.800000190734863 10.899999618530273,-19.5 0,-19.5z M0,10.399999618530273 C-5.699999809265137,10.399999618530273 -10.399999618530273,5.800000190734863 -10.399999618530273,0 C-10.399999618530273,-5.800000190734863 -5.800000190734863,-10.399999618530273 0,-10.399999618530273 C5.699999809265137,-10.399999618530273 10.399999618530273,-5.800000190734863 10.399999618530273,0 C10.399999618530273,5.800000190734863 5.800000190734863,10.399999618530273 0,10.399999618530273z"></path></g><g opacity="1" transform="matrix(1,0,0,1,15.800000190734863,28.700000762939453)"><path fill="rgb(255,255,255)" fill-opacity="1" d=" M6.050000190734863,16.450000762939453 C3.549999952316284,16.450000762939453 1.9500000476837158,15.050000190734863 1.9500000476837158,11.050000190734863 C1.9500000476837158,11.050000190734863 1.9500000476837158,-3.75 1.9500000476837158,-3.75 C1.9500000476837158,-3.75 13.550000190734863,-3.75 13.550000190734863,-3.75 C13.550000190734863,-3.75 13.550000190734863,-12.350000381469727 13.550000190734863,-12.350000381469727 C13.550000190734863,-12.350000381469727 1.850000023841858,-12.350000381469727 1.850000023841858,-12.350000381469727 C1.850000023841858,-12.350000381469727 1.850000023841858,-26.149999618530273 1.850000023841858,-26.149999618530273 C1.850000023841858,-26.149999618530273 -7.75,-20.549999237060547 -7.75,-20.549999237060547 C-7.75,-20.549999237060547 -7.75,-12.149999618530273 -7.75,-12.149999618530273 C-7.75,-12.149999618530273 -15.550000190734863,-12.149999618530273 -15.550000190734863,-12.149999618530273 C-15.550000190734863,-12.149999618530273 -15.550000190734863,-3.549999952316284 -15.550000190734863,-3.549999952316284 C-15.550000190734863,-3.549999952316284 -7.75,-3.549999952316284 -7.75,-3.549999952316284 C-7.75,-3.549999952316284 -7.75,12.050000190734863 -7.75,12.050000190734863 C-7.75,22.25 -2.950000047683716,26.149999618530273 4.949999809265137,26.149999618530273 C8.449999809265137,26.149999618530273 13.149999618530273,24.049999237060547 15.550000190734863,22.350000381469727 C15.550000190734863,22.350000381469727 11.050000190734863,14.550000190734863 11.050000190734863,14.550000190734863 C9.75,15.149999618530273 7.25,16.450000762939453 6.050000190734863,16.450000762939453z"></path></g><g opacity="1" transform="matrix(1,0,0,1,161.5,27.25)"><path fill="rgb(255,255,255)" fill-opacity="1" d=" M-4.349999904632568,-12.899999618530273 C-4.349999904632568,-12.899999618530273 -4.349999904632568,-10 -4.349999904632568,-10 C-4.349999904632568,-10 -11.25,-10 -11.25,-10 C-11.25,-10 -11.25,-5 -11.25,-5 C-11.25,-5 -4.349999904632568,-5 -4.349999904632568,-5 C-4.349999904632568,-5 -4.349999904632568,27 -4.349999904632568,27 C-4.349999904632568,27 1.149999976158142,27 1.149999976158142,27 C1.149999976158142,27 1.149999976158142,-5 1.149999976158142,-5 C1.149999976158142,-5 11.149999618530273,-5 11.149999618530273,-5 C11.149999618530273,-5 11.149999618530273,-10 11.149999618530273,-10 C11.149999618530273,-10 1.25,-10 1.25,-10 C1.25,-10 1.25,-12.899999618530273 1.25,-12.899999618530273 C1.25,-20.600000381469727 2.549999952316284,-21.700000762939453 9.949999809265137,-21.700000762939453 C9.949999809265137,-21.700000762939453 11.25,-21.700000762939453 11.25,-21.700000762939453 C11.25,-21.700000762939453 11.25,-27 11.25,-27 C11.25,-27 9.550000190734863,-27 9.550000190734863,-27 C-1.149999976158142,-27 -4.349999904632568,-24 -4.349999904632568,-12.899999618530273z"></path></g><g opacity="1" transform="matrix(1,0,0,1,193.39999389648438,35.650001525878906)"><path fill="rgb(255,255,255)" fill-opacity="1" d=" M13.649999618530273,-11.899999618530273 C10.75,-16.5 5.150000095367432,-19.200000762939453 -0.25,-19.200000762939453 C-10.550000190734863,-19.200000762939453 -19.049999237060547,-11.199999809265137 -19.049999237060547,0 C-19.049999237060547,11.199999809265137 -10.649999618530273,19.200000762939453 -0.25,19.200000762939453 C5.050000190734863,19.200000762939453 10.649999618530273,16.399999618530273 13.550000190734863,11.899999618530273 C13.550000190734863,11.899999618530273 13.550000190734863,18.5 13.550000190734863,18.5 C13.550000190734863,18.5 19.049999237060547,18.5 19.049999237060547,18.5 C19.049999237060547,18.5 19.049999237060547,-18.5 19.049999237060547,-18.5 C19.049999237060547,-18.5 13.649999618530273,-18.5 13.649999618530273,-18.5 C13.649999618530273,-18.5 13.649999618530273,-11.899999618530273 13.649999618530273,-11.899999618530273z M0.25,14 C-7.550000190734863,14 -13.350000381469727,8.100000381469727 -13.350000381469727,-0.10000000149011612 C-13.350000381469727,-8 -7.449999809265137,-14.199999809265137 0.25,-14.199999809265137 C8.149999618530273,-14.199999809265137 14.050000190734863,-7.800000190734863 14.050000190734863,-0.10000000149011612 C14.050000190734863,7.800000190734863 8.149999618530273,14 0.25,14z"></path></g><g opacity="1" transform="matrix(1,0,0,1,237.9499969482422,35.54999923706055)"><path fill="rgb(255,255,255)" fill-opacity="1" d=" M0.8999999761581421,14.100000381469727 C-6.900000095367432,14.100000381469727 -12.899999618530273,7.800000190734863 -12.899999618530273,0.10000000149011612 C-12.899999618530273,-7.699999809265137 -7,-13.899999618530273 0.699999988079071,-13.899999618530273 C6.400000095367432,-13.899999618530273 10.899999618530273,-10.800000190734863 13.100000381469727,-5.699999809265137 C13.100000381469727,-5.699999809265137 18.200000762939453,-8 18.200000762939453,-8 C15.300000190734863,-14.600000381469727 8.899999618530273,-19.200000762939453 0.800000011920929,-19.200000762939453 C-10,-19.200000762939453 -18.5,-10.899999618530273 -18.5,0 C-18.5,10.600000381469727 -10.100000381469727,19.200000762939453 0.8999999761581421,19.200000762939453 C9.399999618530273,19.200000762939453 15.5,14.399999618530273 18.5,7.599999904632568 C18.5,7.599999904632568 13.300000190734863,5.400000095367432 13.300000190734863,5.400000095367432 C11.199999809265137,10.300000190734863 6.900000095367432,14.100000381469727 0.8999999761581421,14.100000381469727z"></path></g><g opacity="1" transform="matrix(1,0,0,1,280.1000061035156,35.70000076293945)"><path fill="rgb(255,255,255)" fill-opacity="1" d=" M19.049999237060547,-0.44999998807907104 C19.049999237060547,-11.350000381469727 11.050000190734863,-19.25 0.25,-19.25 C-10.850000381469727,-19.25 -19.049999237060547,-10.75 -19.049999237060547,0.15000000596046448 C-19.049999237060547,10.949999809265137 -11.350000381469727,19.25 0.44999998807907104,19.25 C8.550000190734863,19.25 13.850000381469727,15.850000381469727 17.649999618530273,9.949999809265137 C17.649999618530273,9.949999809265137 12.850000381469727,7.050000190734863 12.850000381469727,7.050000190734863 C10.25,11.550000190734863 6.349999904632568,14.149999618530273 0.44999998807907104,14.149999618530273 C-7.349999904632568,14.149999618530273 -12.75,9.149999618530273 -13.649999618530273,2.1500000953674316 C-13.649999618530273,2.1500000953674316 18.950000762939453,2.1500000953674316 18.950000762939453,2.1500000953674316 C18.950000762939453,2.1500000953674316 18.950000762939453,-0.44999998807907104 18.950000762939453,-0.44999998807907104 C18.950000762939453,-0.44999998807907104 19.049999237060547,-0.44999998807907104 19.049999237060547,-0.44999998807907104z M-13.449999809265137,-2.8499999046325684 C-12.149999618530273,-9.449999809265137 -6.849999904632568,-14.25 0.25,-14.25 C7.449999809265137,-14.25 12.449999809265137,-9.850000381469727 13.350000381469727,-2.8499999046325684 C13.350000381469727,-2.8499999046325684 -13.449999809265137,-2.8499999046325684 -13.449999809265137,-2.8499999046325684z"></path></g></g><g mask="url(#__lottie_element_15)" style="display: block;"><g transform="matrix(1,0,0,1,-0.25,0.8500003814697266)" opacity="1"><g opacity="1" transform="matrix(1,0,0,1,28.649999618530273,28.649999618530273)"><path fill="rgb(255,255,255)" fill-opacity="1" d=" M0,-28.399999618530273 C-15.699999809265137,-28.399999618530273 -28.399999618530273,-15.600000381469727 -28.399999618530273,0 C-28.399999618530273,15.699999809265137 -15.699999809265137,28.399999618530273 0,28.399999618530273 C15.699999809265137,28.399999618530273 28.399999618530273,15.699999809265137 28.399999618530273,0 C28.399999618530273,-15.600000381469727 15.699999809265137,-28.399999618530273 0,-28.399999618530273z"></path></g></g></g></g></svg>