<svg xmlns="http://www.w3.org/2000/svg" viewBox="0 0 1024 1024" width="1024" height="1024" preserveAspectRatio="xMidYMid meet" style="width: 100%; height: 100%; transform: translate3d(0px, 0px, 0px);"><defs><clipPath id="__lottie_element_38"><rect width="1024" height="1024" x="0" y="0"></rect></clipPath><clipPath id="__lottie_element_40"><path d="M0,0 L1024,0 L1024,1024 L0,1024z"></path></clipPath><mask id="__lottie_element_43" mask-type="alpha"><g transform="matrix(1,0,0,1,517.7160034179688,517.7160034179688)" opacity="1" style="display: block;"><g opacity="1" transform="matrix(1,0,0,1,-5.716000080108643,-5.716000080108643)"><path fill="rgb(195,195,198)" fill-opacity="1" d=" M0,-498.28448486328125 C275.0032043457031,-498.28448486328125 498.28448486328125,-275.0032043457031 498.28448486328125,0 C498.28448486328125,275.0032043457031 275.0032043457031,498.28448486328125 0,498.28448486328125 C-275.0032043457031,498.28448486328125 -498.28448486328125,275.0032043457031 -498.28448486328125,0 C-498.28448486328125,-275.0032043457031 -275.0032043457031,-498.28448486328125 0,-498.28448486328125z"></path><path stroke-linecap="butt" stroke-linejoin="miter" fill-opacity="0" stroke-miterlimit="4" stroke="rgb(130,161,191)" stroke-opacity="0.8" stroke-width="0" d=" M0,-498.28448486328125 C275.0032043457031,-498.28448486328125 498.28448486328125,-275.0032043457031 498.28448486328125,0 C498.28448486328125,275.0032043457031 275.0032043457031,498.28448486328125 0,498.28448486328125 C-275.0032043457031,498.28448486328125 -498.28448486328125,275.0032043457031 -498.28448486328125,0 C-498.28448486328125,-275.0032043457031 -275.0032043457031,-498.28448486328125 0,-498.28448486328125z"></path></g></g></mask><mask id="__lottie_element_49" mask-type="alpha"><g transform="matrix(1,0,0,1,517.7160034179688,517.7160034179688)" opacity="1" style="display: block;"><g opacity="1" transform="matrix(1,0,0,1,-5.716000080108643,-5.716000080108643)"><path fill="rgb(195,195,198)" fill-opacity="1" d=" M0,-498.28448486328125 C275.0032043457031,-498.28448486328125 498.28448486328125,-275.0032043457031 498.28448486328125,0 C498.28448486328125,275.0032043457031 275.0032043457031,498.28448486328125 0,498.28448486328125 C-275.0032043457031,498.28448486328125 -498.28448486328125,275.0032043457031 -498.28448486328125,0 C-498.28448486328125,-275.0032043457031 -275.0032043457031,-498.28448486328125 0,-498.28448486328125z"></path><path stroke-linecap="butt" stroke-linejoin="miter" fill-opacity="0" stroke-miterlimit="4" stroke="rgb(130,161,191)" stroke-opacity="0.8" stroke-width="0" d=" M0,-498.28448486328125 C275.0032043457031,-498.28448486328125 498.28448486328125,-275.0032043457031 498.28448486328125,0 C498.28448486328125,275.0032043457031 275.0032043457031,498.28448486328125 0,498.28448486328125 C-275.0032043457031,498.28448486328125 -498.28448486328125,275.0032043457031 -498.28448486328125,0 C-498.28448486328125,-275.0032043457031 -275.0032043457031,-498.28448486328125 0,-498.28448486328125z"></path></g></g></mask></defs><g clip-path="url(#__lottie_element_38)"><g clip-path="url(#__lottie_element_40)" transform="matrix(0.699999988079071,0,0,0.699999988079071,153.60000610351562,153.60000610351562)" opacity="1" style="display: block;"><g transform="matrix(1,0,0,1,-81.39300537109375,-81.39300537109375)" opacity="1" style="display: block;"><g opacity="1" transform="matrix(1,0,0,1,593.3930053710938,593.3930053710938)"><path stroke-linecap="butt" stroke-linejoin="miter" fill-opacity="0" stroke-miterlimit="10" stroke="rgb(255,255,255)" stroke-opacity="1" stroke-width="41.855" d=" M488.7550048828125,0 C488.7550048828125,269.9320068359375 269.9320068359375,488.7560119628906 -0.0010000000474974513,488.7560119628906 C-269.9330139160156,488.7560119628906 -488.7560119628906,269.9320068359375 -488.7560119628906,0 C-488.7560119628906,-269.9320068359375 -269.9330139160156,-488.7560119628906 -0.0010000000474974513,-488.7560119628906 C269.9320068359375,-488.7560119628906 488.7550048828125,-269.9320068359375 488.7550048828125,0z"></path></g><g opacity="1" transform="matrix(1,0,0,1,433.9280090332031,588.583984375)"><path fill="rgb(255,255,255)" fill-opacity="1" d=" M-24.107999801635742,32.641998291015625 C-21.496999740600586,43.92599868774414 -12.263999938964844,51.013999938964844 1.0729999542236328,51.013999938964844 C16.368000030517578,51.013999938964844 24.94700050354004,42.62099838256836 25.132999420166016,30.777000427246094 C25.31999969482422,17.160999298095703 17.858999252319336,10.164999961853027 -0.42100000381469727,10.164999961853027 C-0.42100000381469727,10.164999961853027 -15.340999603271484,10.164999961853027 -15.340999603271484,10.164999961853027 C-15.340999603271484,10.164999961853027 -15.340999603271484,-13.149999618530273 -15.340999603271484,-13.149999618530273 C-15.340999603271484,-13.149999618530273 -1.0729999542236328,-13.149999618530273 -1.0729999542236328,-13.149999618530273 C12.916000366210938,-13.149999618530273 21.124000549316406,-21.17099952697754 21.124000549316406,-32.26900100708008 C21.124000549316406,-43.18000030517578 13.848999977111816,-51.013999938964844 0.5120000243186951,-51.013999938964844 C-12.451000213623047,-51.013999938964844 -21.309999465942383,-43.367000579833984 -22.802000045776367,-32.45500183105469 C-22.802000045776367,-32.45500183105469 -52.367000579833984,-32.45500183105469 -52.367000579833984,-32.45500183105469 C-49.94200134277344,-56.516998291015625 -27.187000274658203,-74.51599884033203 0.5120000243186951,-74.51599884033203 C28.957000732421875,-74.51599884033203 49.75400161743164,-58.474998474121094 49.75400161743164,-35.34600067138672 C49.75400161743164,-19.118999481201172 40.05500030517578,-6.061999797821045 22.242000579833984,-2.7049999237060547 C41.91999816894531,-0.5600000023841858 53.76599884033203,12.59000015258789 53.76599884033203,30.59000015258789 C53.76599884033203,56.33000183105469 31.663000106811523,74.51599884033203 1.0729999542236328,74.51599884033203 C-27.55900001525879,74.51599884033203 -51.0620002746582,57.915000915527344 -53.76599884033203,32.641998291015625 C-53.76599884033203,32.641998291015625 -24.107999801635742,32.641998291015625 -24.107999801635742,32.641998291015625z"></path></g><g opacity="1" transform="matrix(1,0,0,1,560.9400024414062,588.6309814453125)"><path fill="rgb(255,255,255)" fill-opacity="1" d=" M-53.76599884033203,-0.04699999839067459 C-53.76599884033203,-49.8489990234375 -30.636999130249023,-73.7239990234375 3.0309998989105225,-73.7239990234375 C28.583999633789062,-73.7239990234375 46.58300018310547,-60.38600158691406 52.45800018310547,-35.01900100708008 C52.45800018310547,-35.01900100708008 24.573999404907227,-35.01900100708008 24.573999404907227,-35.01900100708008 C21.496000289916992,-45.8380012512207 13.47599983215332,-50.874000549316406 2.6579999923706055,-50.500999450683594 C-15.529000282287598,-49.847999572753906 -25.881000518798828,-34.367000579833984 -26.066999435424805,-0.23399999737739563 C-20.658000946044922,-11.890999794006348 -6.947999954223633,-21.964000701904297 8.720000267028809,-21.964000701904297 C34.553001403808594,-21.964000701904297 53.76599884033203,-4.616000175476074 53.76599884033203,23.64299964904785 C53.76599884033203,53.29999923706055 32.595001220703125,73.7239990234375 2.6579999923706055,73.7239990234375 C-32.50199890136719,73.7239990234375 -53.76599884033203,49.847999572753906 -53.76599884033203,-0.04699999839067459z M26.34600067138672,25.974000930786133 C26.34600067138672,10.678999900817871 16.554000854492188,1.2599999904632568 2.4709999561309814,1.2599999904632568 C-11.331999778747559,1.2599999904632568 -21.40399932861328,10.678000450134277 -21.40399932861328,25.785999298095703 C-21.40399932861328,40.801998138427734 -11.331999778747559,50.595001220703125 2.4709999561309814,50.409000396728516 C16.554000854492188,50.409000396728516 26.34600067138672,40.9900016784668 26.34600067138672,25.974000930786133z"></path></g><g opacity="1" transform="matrix(1,0,0,1,686.8319702148438,588.6309814453125)"><path fill="rgb(255,255,255)" fill-opacity="1" d=" M-54.13800048828125,0.14000000059604645 C-54.13800048828125,-48.729000091552734 -32.500999450683594,-73.7229995727539 0.14000000059604645,-73.7229995727539 C32.409000396728516,-73.7229995727539 54.13800048828125,-48.729000091552734 54.13800048828125,0.14000000059604645 C54.13800048828125,49.0099983215332 32.409000396728516,73.7229995727539 0.14000000059604645,73.7229995727539 C-32.500999450683594,73.7229995727539 -54.13800048828125,49.0099983215332 -54.13800048828125,0.14000000059604645z M26.066999435424805,0.14000000059604645 C26.066999435424805,-35.57899856567383 16.554000854492188,-50.500999450683594 0.14000000059604645,-50.500999450683594 C-16.459999084472656,-50.500999450683594 -26.066999435424805,-35.57899856567383 -26.066999435424805,0.14000000059604645 C-26.066999435424805,35.67300033569336 -16.459999084472656,50.40800094604492 0.14000000059604645,50.40800094604492 C16.554000854492188,50.40800094604492 26.066999435424805,35.67300033569336 26.066999435424805,0.14000000059604645z"></path></g><g opacity="1" transform="matrix(1,0,0,1,786.7020263671875,547.541015625)"><path stroke-linecap="butt" stroke-linejoin="miter" fill-opacity="0" stroke-miterlimit="10" stroke="rgb(255,255,255)" stroke-opacity="1" stroke-width="18" d=" M24.367000579833984,0 C24.367000579833984,13.458000183105469 13.456999778747559,24.368000030517578 -0.0010000000474974513,24.368000030517578 C-13.458999633789062,24.368000030517578 -24.367000579833984,13.458000183105469 -24.367000579833984,0 C-24.367000579833984,-13.458000183105469 -13.458999633789062,-24.368000030517578 -0.0010000000474974513,-24.368000030517578 C13.456999778747559,-24.368000030517578 24.367000579833984,-13.458000183105469 24.367000579833984,0z"></path></g></g><g mask="url(#__lottie_element_49)" style="display: block;"><g transform="matrix(1,0,0,1,112.58599853515625,-81.7559814453125)" opacity="1"><g opacity="1" transform="matrix(1,0,0,1,399.41400146484375,593.7559814453125)"><path stroke-linecap="butt" stroke-linejoin="miter" fill-opacity="0" stroke-miterlimit="10" stroke="rgb(255,255,255)" stroke-opacity="1" stroke-width="42" d=" M294.41400146484375,0 C294.41400146484375,269.9320068359375 162.60000610351562,488.7560119628906 0,488.7560119628906 C-162.6009979248047,488.7560119628906 -294.41400146484375,269.9320068359375 -294.41400146484375,0 C-294.41400146484375,-269.9320068359375 -162.6009979248047,-488.7560119628906 0,-488.7560119628906 C162.60000610351562,-488.7560119628906 294.41400146484375,-269.9320068359375 294.41400146484375,0z"></path></g></g></g><g mask="url(#__lottie_element_43)" style="display: block;"><g transform="matrix(1,0,0,1,-81.7559814453125,112.58599853515625)" opacity="1"><g opacity="1" transform="matrix(1,0,0,1,593.7559814453125,399.41400146484375)"><path stroke-linecap="butt" stroke-linejoin="miter" fill-opacity="0" stroke-miterlimit="10" stroke="rgb(255,255,255)" stroke-opacity="1" stroke-width="42" d=" M0,294.41400146484375 C-269.9320068359375,294.41400146484375 -488.7560119628906,162.60000610351562 -488.7560119628906,0 C-488.7560119628906,-162.60000610351562 -269.9320068359375,-294.41400146484375 0,-294.41400146484375 C269.9320068359375,-294.41400146484375 488.7560119628906,-162.60000610351562 488.7560119628906,0 C488.7560119628906,162.60000610351562 269.9320068359375,294.41400146484375 0,294.41400146484375z"></path></g></g></g></g></g></svg>